<svg width="72" height="86" viewBox="0 0 72 86" fill="none" xmlns="http://www.w3.org/2000/svg">
<g clip-path="url(#clip0_236_38)">
<path d="M33.6068 0.442867L4.32648 11.6338C3.04968 12.1343 1.95365 13.0086 1.18174 14.1421C0.409826 15.2757 -0.00203863 16.6158 7.58764e-06 17.9872V46.1604L13.4564 38.4272V22.5862L36.0085 13.9333V0C35.1878 0.00176766 34.3742 0.1518 33.6068 0.442867Z" fill="#323232"/>
<path d="M13.6948 63.5342L36.0085 50.6741V35.1396L1.533 55.0176C1.06892 55.2894 0.683561 55.6774 0.414784 56.1432C0.146007 56.6091 0.00306386 57.1369 0 57.6748V68.0821C0.0115882 69.4419 0.429804 70.7671 1.20083 71.8873C1.97187 73.0074 3.06043 73.8712 4.32647 74.3674L33.6068 85.5583C34.3742 85.8494 35.1878 85.9995 36.0085 86.0012V72.0679L13.6948 63.5342Z" fill="#323232"/>
<path d="M70.5855 30.7111C71.0255 30.4592 71.3902 30.0942 71.6418 29.6539C71.8933 29.2137 72.0226 28.7142 72.0163 28.2072V17.9872C72.0184 16.6158 71.6065 15.2757 70.8346 14.1421C70.0627 13.0086 68.9667 12.1343 67.6899 11.6338L38.3925 0.442867C37.6305 0.15381 36.8228 0.00381132 36.0078 0V13.9333L58.1512 22.45L36.0078 35.2079V50.7423L70.5855 30.7111Z" fill="#1A1A1A"/>
<path d="M38.3925 85.5586L67.6899 74.3677C68.9559 73.8714 70.0445 73.0076 70.8155 71.8875C71.5865 70.7674 72.0047 69.4422 72.0163 68.0824V39.6196L58.56 47.3868V63.4493L36.0078 72.0682V86.0015C36.8228 85.9977 37.6305 85.8477 38.3925 85.5586Z" fill="#1A1A1A"/>
</g>
<defs>
<clipPath id="clip0_236_38">
<rect width="72" height="85.9844" fill="white"/>
</clipPath>
</defs>
</svg>
